<?xml version="1.0" encoding="UTF-8" standalone="no"?>
        <svg 
    viewBox="3.1494140625 -85.83984375 446.1181640625 56.982421875"
    width="442.96875"
    height="142.822265625"
   xmlns="http://www.w3.org/2000/svg"
   xmlns:svg="http://www.w3.org/2000/svg">
   <path d="M13.77-32.52L13.77-32.52Q15.45-32.52 16.30-32.92Q17.14-33.33 18.31-35.67L18.31-35.67Q19.19-37.43 20.00-39.11Q20.80-40.80 22.16-44.24Q23.51-47.68 26.11-54.57Q28.71-61.45 33.14-73.43Q37.57-85.40 44.53-104.22L44.53-104.22L46.80-103.78Q45.56-98.22 44.09-91.15Q42.63-84.08 41.16-76.61Q39.70-69.14 38.34-62.26Q36.99-55.37 36.04-50.02Q35.08-44.68 34.64-41.97L34.64-41.97Q33.98-38.09 33.51-34.09Q33.03-30.10 33.18-27.17L33.18-27.17Q33.25-23.80 34.39-20.98Q35.52-18.16 36.88-15.16Q38.23-12.16 39.22-8.39Q40.21-4.61 40.06 0.73L40.06 0.73Q39.92 6.81 35.89 10.62Q31.86 14.43 25.63 14.43L25.63 14.43Q22.85 14.43 19.92 12.82Q16.99 11.21 15.89 6.59L15.89 6.59Q17.50-1.25 17.87-8.57Q18.24-15.89 17.50-20.98Q16.77-26.07 15.01-27.32L15.01-27.32Q12.08-29.37 7.18-29.88L7.18-29.88L7.18-32.52Q7.18-32.52 8.50-32.52Q9.81-32.52 11.39-32.52Q12.96-32.52 13.77-32.52ZM3.15-91.04L4.32-91.77Q15.09-90.38 21.09-87.16Q27.10-83.94 29.26-79.98Q31.42-76.03 30.65-72.36Q29.88-68.70 27.03-66.36Q24.17-64.01 20.14-63.98Q16.11-63.94 11.87-67.38L11.87-67.38Q11.43-73.68 8.79-80.05Q6.15-86.43 3.15-91.04L3.15-91.04ZM11.28-124.95L12.30-125.68Q23.88-124.88 30.54-121.84Q37.21-118.80 39.84-114.77Q42.48-110.74 41.97-106.86Q41.46-102.98 38.67-100.31Q35.89-97.63 31.68-97.30Q27.47-96.97 22.78-100.20L22.78-100.20Q21.46-106.86 18.05-113.49Q14.65-120.12 11.28-124.95L11.28-124.95ZM96.75-73.97L118.07-72.14Q117.85-70.68 116.71-69.62Q115.58-68.55 113.09-68.26L113.09-68.26L113.09-13.04Q113.09-11.50 113.75-10.84Q114.40-10.18 116.38-10.18L116.38-10.18L122.83-10.18Q124.51-10.18 125.94-10.18Q127.37-10.18 128.25-10.18L128.25-10.18Q129.35-10.33 130.04-10.73Q130.74-11.13 131.54-12.45L131.54-12.45Q132.79-14.72 134.80-20.91Q136.82-27.10 139.23-34.50L139.23-34.50L140.70-34.50L141.14-11.13Q144.73-9.30 145.86-7.36Q147.00-5.42 147.00-2.71L147.00-2.71Q147.00 3.52 140.92 6.63Q134.84 9.74 120.26 9.74L120.26 9.74L110.08 9.74Q102.61 9.74 98.77 8.24Q94.92 6.74 93.60 3.04Q92.29-0.66 92.29-7.32L92.29-7.32L92.29-46.07Q88.99-33.91 82.84-23.14Q76.68-12.38 66.43-3.04Q56.18 6.30 40.65 14.14L40.65 14.14L39.18 12.16Q51.42 1.17 58.81-10.88Q66.21-22.92 69.98-36.22Q73.75-49.51 75.11-64.05Q76.46-78.59 76.68-94.48L76.68-94.48L62.84-94.48Q65.41-85.18 64.27-79.58Q63.13-73.97 59.95-71.59Q56.76-69.21 53.06-69.58Q49.37-69.95 46.73-72.51Q44.09-75.07 44.06-79.36Q44.02-83.64 48.27-89.14L48.27-89.14Q51.71-91.55 53.80-96.28Q55.88-101.00 56.25-107.89L56.25-107.89L57.71-107.89Q58.89-105.40 59.84-103.13Q60.79-100.85 61.52-98.73L61.52-98.73L76.68-98.73L76.68-127.81L103.78-125.39Q103.49-123.63 102.21-122.57Q100.93-121.51 98.07-121.07L98.07-121.07L97.78-98.73L121.36-98.73L131.25-108.47L147.88-92.43Q147.00-91.41 145.72-91.04Q144.43-90.67 142.02-90.45L142.02-90.45Q139.45-87.74 135.83-84.23Q132.20-80.71 128.47-77.31Q124.73-73.90 121.66-71.41L121.66-71.41L120.26-72.29L122.68-94.48L97.78-94.48Q97.56-89.21 97.38-84.05Q97.19-78.88 96.75-73.97L96.75-73.97ZM204.13-62.70L205.22-63.43Q218.26-61.30 225.81-57.02Q233.35-52.73 236.39-47.61Q239.43-42.48 238.99-37.76Q238.55-33.03 235.51-29.92Q232.47-26.81 227.86-26.51Q223.24-26.22 218.12-30.18L218.12-30.18Q216.87-38.82 212.88-47.42Q208.89-56.03 204.13-62.70L204.13-62.70ZM181.79-52.95L181.79-82.47L181.79-90.89L189.92-88.18L189.92-104.22L155.13-104.22L154.03-108.47L189.92-108.47L189.92-128.25L216.28-125.98Q216.21-124.51 215.08-123.45Q213.94-122.39 211.08-121.95L211.08-121.95L211.08-108.47L237.30-108.47L237.30-128.25L264.18-125.98Q264.04-124.51 262.94-123.45Q261.84-122.39 258.91-121.95L258.91-121.95L258.91-108.47L267.77-108.47L277.95-122.24Q277.95-122.24 279.79-120.74Q281.62-119.24 284.44-116.86Q287.26-114.48 290.33-111.77Q293.41-109.06 295.83-106.64L295.83-106.64Q295.39-104.22 291.72-104.22L291.72-104.22L258.91-104.22L258.91-92.58Q258.91-91.63 256.64-90.75L256.64-90.75L271.07-79.17Q270.26-78.30 269.02-77.64Q267.77-76.98 265.50-76.46L265.50-76.46L265.50-12.74Q265.50-11.21 265.98-10.62Q266.46-10.03 268.07-10.03L268.07-10.03L272.09-10.03Q272.97-10.03 273.93-10.03Q274.88-10.03 275.54-10.03L275.54-10.03Q276.42-10.03 277.33-10.36Q278.25-10.69 278.98-11.72L278.98-11.72Q280.22-13.48 282.09-18.31Q283.96-23.14 285.86-28.64L285.86-28.64L287.26-28.64L287.84-10.62Q291.43-8.72 292.64-6.77Q293.85-4.83 293.85-1.83L293.85-1.83Q293.85 4.47 287.99 7.54Q282.13 10.62 269.09 10.62L269.09 10.62L260.38 10.62Q253.13 10.62 249.46 9.01Q245.80 7.40 244.56 3.55Q243.31-0.29 243.31-7.03L243.31-7.03L243.31-78.30L203.69-78.30L203.69-53.10Q203.69-46.29 202.88-38.93Q202.08-31.57 199.44-24.10Q196.80-16.63 191.53-9.63Q186.25-2.64 177.47 3.52Q168.68 9.67 155.42 14.43L155.42 14.43L154.47 13.33Q166.55 3.81 172.38-7.21Q178.20-18.24 179.99-29.88Q181.79-41.53 181.79-52.95L181.79-52.95ZM193.36-87.16L193.07-87.16L206.84-82.47L241.33-82.47L246.46-88.33Q245.07-88.26 243.64-88.15Q242.21-88.04 240.75-88.04L240.75-88.04L237.30-88.04L237.30-104.22L211.08-104.22L211.08-91.77Q211.08-90.45 205.77-88.81Q200.46-87.16 193.36-87.16L193.36-87.16ZM340.65-120.26L340.65-120.26Q339.84-114.99 338.64-107.70Q337.43-100.42 336.04-92.07L336.04-92.07L339.92-92.07L349.37-102.17L366.14-87.45Q365.04-85.40 360.28-84.74L360.28-84.74Q358.74-70.61 355.55-56.47Q352.37-42.33 346.07-29.22L346.07-29.22Q353.69-24.02 356.58-19.19Q359.47-14.36 358.92-10.51Q358.37-6.67 355.59-4.39Q352.81-2.12 348.93-1.94Q345.04-1.76 341.38-4.32L341.38-4.32Q339.40-8.86 336.47-13.33L336.47-13.33Q330.69-5.57 323.18 1.25Q315.67 8.06 305.86 13.62L305.86 13.62L304.32 12.16Q312.23 4.61 318.05-4.58Q323.88-13.77 328.05-24.02L328.05-24.02Q323.44-29.15 318.24-33.69Q313.04-38.23 308.13-41.67L308.13-41.67Q310.25-50.02 312.60-62.48Q314.94-74.93 316.92-87.89L316.92-87.89L304.83-87.89L303.44-92.07L317.58-92.07Q319.26-102.98 320.32-112.57Q321.39-122.17 321.75-128.10L321.75-128.10L346.51-124.07Q346.14-122.68 345.15-121.62Q344.17-120.56 340.65-120.26ZM416.53-75.44L427.08-90.16Q427.08-90.16 429.02-88.55Q430.96-86.94 434.00-84.38Q437.04-81.81 440.26-78.96Q443.48-76.10 446.12-73.68L446.12-73.68Q445.46-71.26 441.72-71.26L441.72-71.26L424.95-71.26L424.95 9.16Q424.80 9.96 420.37 11.94Q415.94 13.92 407.67 13.92L407.67 13.92L403.78 13.92L403.78-71.26L387.45-71.26L387.45-65.55Q387.45-55.66 386.50-44.86Q385.55-34.06 382.03-23.36Q378.52-12.67 371.12-3.00Q363.72 6.67 350.83 14.43L350.83 14.43L349.51 12.89Q357.35 1.32 360.94-11.90Q364.53-25.12 365.48-38.96Q366.43-52.81 366.43-66.14L366.43-66.14L366.43-113.82L384.30-108.33Q394.19-113.01 403.78-118.51Q413.38-124.00 419.09-128.39L419.09-128.39L441.14-108.18Q437.99-105.47 430.08-108.18L430.08-108.18Q421.95-106.49 410.60-105.10Q399.24-103.71 387.45-102.91L387.45-102.91L387.45-75.44L416.53-75.44ZM325.05-39.77L325.05-39.77L332.52-36.62Q336.25-48.85 338.38-61.89Q340.50-74.93 341.38-87.89L341.38-87.89L335.23-87.89Q333.03-75.73 330.40-63.02Q327.76-50.32 325.05-39.77Z"/>
    </svg>
        