<?xml version="1.0" encoding="UTF-8" standalone="no"?>
        <svg 
    viewBox="11.572265625 -72.0703125 445.8984375 50.9765625"
    width="434.326171875"
    height="123.046875"
   xmlns="http://www.w3.org/2000/svg"
   xmlns:svg="http://www.w3.org/2000/svg">
   <path d="M26.95-87.89Q28.71-87.89 30.76-87.16L30.76-87.16Q35.74-85.69 38.23-83.94L38.23-83.94Q40.43-81.88 40.43-78.37L40.43-78.37Q40.43-72.66 35.74-72.66L35.74-72.66Q34.57-72.66 33.25-74.12L33.25-74.12Q30.76-76.76 26.22-85.25L26.22-85.25Q25.63-86.13 25.63-86.57L25.63-86.57Q25.93-87.89 26.95-87.89L26.95-87.89ZM12.89-58.59Q14.65-58.59 16.70-57.86L16.70-57.86Q21.68-56.40 24.17-54.64L24.17-54.64Q26.37-52.59 26.37-49.07L26.37-49.07Q26.37-43.36 21.68-43.36L21.68-43.36Q20.51-43.36 19.19-44.82L19.19-44.82Q16.70-47.46 12.16-55.96L12.16-55.96Q11.57-56.84 11.57-57.28L11.57-57.28Q11.87-58.59 12.89-58.59L12.89-58.59ZM41.31-41.02L41.31-41.02Q42.19-41.02 42.19-39.70L42.19-39.70Q42.19-37.50 40.43-32.08L40.43-32.08Q37.21-21.68 31.93-7.91L31.93-7.91Q30.18-2.78 28.13 4.98L28.13 4.98Q26.81 10.55 24.90 10.55L24.90 10.55Q23.00 10.55 20.65 5.57L20.65 5.57Q17.58-2.34 17.58-4.69L17.58-4.69Q17.58-6.88 19.78-8.50L19.78-8.50Q24.02-11.57 27.25-16.85L27.25-16.85Q32.08-23.58 39.70-39.84L39.70-39.84Q40.58-41.02 41.31-41.02ZM17.58 4.69Q17.58 4.69 17.58 4.69ZM57.42-72.66L57.42-72.66Q58.59-72.66 59.91-69.58L59.91-69.58Q60.79-66.80 60.79-64.60L60.79-64.60Q60.79-62.40 59.18-58.59L59.18-58.59Q57.42-54.64 55.96-53.03L55.96-53.03Q54.79-52.15 53.91-52.15L53.91-52.15Q52.59-52.15 51.27-53.76L51.27-53.76Q50.54-55.08 50.54-56.84L50.54-56.84Q50.54-58.45 51.27-59.47L51.27-59.47Q53.32-62.40 56.40-71.34L56.40-71.34Q56.69-72.66 57.42-72.66ZM95.07-75Q96.39-75 101.95-72.22L101.95-72.22Q107.52-68.99 107.52-67.24L107.52-67.24Q107.52-66.50 106.05-66.06L106.05-66.06Q103.56-65.63 102.25-65.04L102.25-65.04Q99.76-64.45 91.99-61.52L91.99-61.52Q91.26-61.52 91.26-62.11L91.26-62.11Q93.16-64.45 94.34-67.38L94.34-67.38Q94.34-68.55 92.87-68.70L92.87-68.70Q91.70-68.70 85.84-67.68L85.84-67.68Q76.17-66.21 65.63-63.87L65.63-63.87Q62.84-63.13 62.11-63.13L62.11-63.13Q60.64-63.13 58.89-64.01L58.89-64.01Q56.84-65.33 56.84-66.50L56.84-66.50Q56.84-67.09 59.62-67.53L59.62-67.53Q73.68-69.58 87.74-73.10L87.74-73.10Q94.34-75 95.07-75L95.07-75ZM56.84-64.45L56.84-64.45ZM81.01-101.95Q82.76-101.95 86.72-99.76L86.72-99.76Q90.67-97.41 90.67-95.80L90.67-95.80Q90.67-95.07 89.79-93.60L89.79-93.60Q88.92-91.41 87.89-86.87L87.89-86.87Q85.11-73.39 81.88-64.45L81.88-64.45Q77.93-54.49 70.31-46.00L70.31-46.00Q62.99-38.09 54.05-35.45L54.05-35.45Q50.83-34.28 49.22-33.98L49.22-33.98Q48.05-33.98 48.05-34.57L48.05-34.57Q48.05-35.30 50.10-36.33L50.10-36.33Q60.50-43.65 64.45-48.19L64.45-48.19Q68.70-52.88 72.66-60.79L72.66-60.79Q75.59-66.80 77.93-76.17L77.93-76.17Q79.69-83.50 79.98-90.97L79.98-90.97Q79.98-94.92 79.10-97.85L79.10-97.85Q78.52-99.46 78.52-100.05L78.52-100.05Q79.25-101.95 81.01-101.95L81.01-101.95ZM83.20-101.95Q83.20-101.95 83.20-101.95ZM87.74-45.70Q90.53-45.70 94.04-43.65L94.04-43.65Q97.12-41.89 97.12-39.84L97.12-39.84Q96.97-39.55 96.24-38.23L96.24-38.23Q95.36-37.06 94.19-32.96L94.19-32.96Q93.31-28.86 93.31-24.61L93.31-24.61Q93.31-21.39 97.27-20.21L97.27-20.21Q101.07-19.04 109.72-19.04L109.72-19.04Q118.95-19.04 122.61-21.09L122.61-21.09Q127.44-22.71 129.05-34.57L129.05-34.57Q129.05-35.74 129.49-35.74L129.49-35.74Q130.37-35.74 130.96-33.84L130.96-33.84Q132.71-27.98 134.91-24.46L134.91-24.46Q136.52-22.56 136.52-21.53L136.52-21.53Q136.52-18.46 130.96-15.23L130.96-15.23Q123.63-11.13 110.89-11.13L110.89-11.13Q98.88-11.13 93.60-14.21L93.60-14.21Q87.45-17.58 87.45-24.90L87.45-24.90Q87.45-27.69 87.60-31.64L87.60-31.64Q87.74-33.69 87.74-35.45L87.74-35.45Q87.74-38.96 86.87-41.31L86.87-41.31Q85.84-43.21 85.84-44.09L85.84-44.09Q85.84-45.70 87.74-45.70L87.74-45.70ZM90.23-23.44L90.23-23.44ZM136.52-11.13L136.52-11.13ZM90.23-45.70L90.23-45.70ZM199.66-106.05Q202.73-106.05 207.13-104.30L207.13-104.30Q209.18-103.13 209.18-101.81L209.18-101.81Q209.18-98.00 209.33-96.24L209.33-96.24Q210.35-81.74 210.35-80.57L210.35-80.57Q209.77-76.90 208.01-76.76L208.01-76.76Q205.81-76.90 204.49-82.32L204.49-82.32Q200.39-97.71 198.63-100.63L198.63-100.63Q197.31-102.98 197.31-103.86L197.31-103.86Q197.31-106.05 199.66-106.05L199.66-106.05ZM202.73-106.05Q202.73-106.05 202.73-106.05ZM180.18-87.45L180.18-87.45Q181.05-87.45 183.11-87.16L183.11-87.16Q185.89-86.87 186.62-86.87L186.62-86.87Q188.67-86.87 194.09-87.30L194.09-87.30Q218.26-90.38 227.93-92.14L227.93-92.14Q230.42-92.58 231.45-92.58L231.45-92.58Q234.96-92.58 234.96-90.82L234.96-90.82Q234.96-89.50 231.01-88.62L231.01-88.62Q203.17-82.03 203.17-81.88L203.17-81.88Q197.31-80.42 192.63-78.81L192.63-78.81Q189.84-77.49 188.38-77.49L188.38-77.49Q186.18-77.49 182.37-80.71L182.37-80.71Q178.13-84.67 178.13-85.99L178.13-85.99Q178.13-87.45 180.18-87.45ZM178.13-81.45Q178.13-81.45 178.13-81.45ZM251.22-112.50Q252.83-112.50 255.47-110.89L255.47-110.89Q258.40-108.98 258.40-107.52L258.40-107.52Q258.40-107.23 257.52-106.35L257.52-106.35Q256.49-104.74 255.62-103.13L255.62-103.13Q252.69-98.73 250.78-97.27L250.78-97.27Q249.46-96.09 249.02-96.09L249.02-96.09Q248.29-96.24 248.29-96.83L248.29-96.83Q249.17-101.07 249.61-104.00L249.61-104.00Q249.90-106.35 249.90-107.67L249.90-107.67Q249.90-108.54 249.46-110.60L249.46-110.60Q249.76-112.50 251.22-112.50L251.22-112.50ZM254.30-112.50Q254.30-112.50 254.30-112.50ZM283.30-102.54Q285.21-102.54 289.89-100.34L289.89-100.34Q294.73-98.00 294.73-96.68L294.73-96.68Q294.73-94.63 291.65-94.04L291.65-94.04Q289.75-93.31 284.18-93.31L284.18-93.31Q273.63-93.31 261.91-91.41L261.91-91.41Q245.65-88.48 240.23-86.87L240.23-86.87Q238.48-86.13 237.74-86.13L237.74-86.13Q236.28-86.13 232.32-88.18L232.32-88.18Q229.10-89.79 229.10-90.82L229.10-90.82Q229.10-91.85 231.88-92.14L231.88-92.14Q241.99-93.75 255.32-96.24L255.32-96.24Q274.80-100.49 280.22-101.81L280.22-101.81Q282.71-102.54 283.30-102.54L283.30-102.54ZM229.10-89.06Q229.10-89.06 229.10-89.06ZM202.00-60.35Q205.08-60.35 208.30-59.03L208.30-59.03Q211.08-57.71 211.08-55.81L211.08-55.81Q211.08-55.52 210.50-54.20L210.50-54.20Q209.77-52.29 209.77-48.34L209.77-48.34Q209.33-28.56 207.57-20.36L207.57-20.36Q205.81-13.04 202.59-7.91L202.59-7.91Q199.95-3.37 195.41-0.44L195.41-0.44Q191.16 2.34 188.09 2.34L188.09 2.34Q186.91 2.34 186.91 1.76L186.91 1.76Q192.48-2.93 195.56-7.47L195.56-7.47Q199.22-12.01 201.27-22.27L201.27-22.27Q202.59-30.47 202.59-44.38L202.59-44.38Q202.59-53.61 200.68-56.84L200.68-56.84Q199.80-58.01 199.80-58.89L199.80-58.89Q199.80-60.35 202.00-60.35L202.00-60.35ZM205.08-60.35L205.08-60.35ZM205.08-60.35Q205.08-60.35 205.08-60.35ZM238.77-66.06Q240.53-66.06 244.04-63.43L244.04-63.43Q247.85-60.35 247.85-59.03L247.85-59.03Q247.85-58.59 246.24-57.42L246.24-57.42Q243.31-55.08 241.55-49.51L241.55-49.51Q239.36-42.63 239.36-38.67L239.36-38.67Q239.36-32.67 243.75-30.76L243.75-30.76Q247.85-28.86 258.69-28.86L258.69-28.86Q268.65-28.86 272.61-31.05L272.61-31.05Q277.44-33.84 280.66-47.75L280.66-47.75Q280.81-49.22 281.25-49.22L281.25-49.22Q281.98-49.22 282.13-47.31L282.13-47.31Q284.03-35.30 285.64-33.11L285.64-33.11Q287.11-31.05 287.11-29.88L287.11-29.88Q287.11-26.66 281.25-23.58L281.25-23.58Q273.93-19.92 260.30-19.92L260.30-19.92Q246.83-19.92 239.79-23.73L239.79-23.73Q232.32-27.54 232.32-38.67L232.32-38.67Q232.32-43.95 234.08-52.29L234.08-52.29Q234.52-54.05 234.52-54.93L234.52-54.93Q234.52-56.40 233.06-56.40L233.06-56.40Q231.88-56.40 229.25-55.96L229.25-55.96Q212.55-52.59 208.74-52.59L208.74-52.59Q206.54-52.59 204.79-53.47L204.79-53.47Q203.32-54.20 203.32-55.22L203.32-55.22Q203.32-55.81 205.66-56.25L205.66-56.25Q212.26-57.13 219.73-59.18L219.73-59.18Q227.64-61.52 234.81-64.60L234.81-64.60Q238.33-66.06 238.77-66.06L238.77-66.06ZM148.83-66.06L148.83-66.06ZM235.55-38.67L235.55-38.67ZM287.11-19.92L287.11-19.92ZM203.32-53.91L203.32-53.91ZM209.77-35.16Q210.35-35.16 211.82-34.72L211.82-34.72Q214.75-33.40 217.53-31.64L217.53-31.64Q221.19-29.00 222.36-26.81L222.36-26.81Q223.24-24.90 223.24-22.56L223.24-22.56Q223.24-20.80 222.36-18.60L222.36-18.60Q221.34-16.99 219.73-16.99L219.73-16.99Q219.29-16.99 218.41-18.02L218.41-18.02Q216.94-19.48 214.75-24.17L214.75-24.17Q211.82-30.03 210.35-32.08L210.35-32.08Q209.18-33.54 209.18-34.28L209.18-34.28Q209.18-35.16 209.77-35.16L209.77-35.16ZM338.38-104.30Q340.87-104.30 347.02-100.20L347.02-100.20Q350.24-98.29 350.24-95.80L350.24-95.80Q350.24-95.07 348.78-91.41L348.78-91.41Q348.19-88.92 347.02-84.81L347.02-84.81Q340.72-57.13 335.60-40.58L335.60-40.58Q334.28-35.16 334.28-33.84L334.28-33.84Q334.28-32.81 337.21-31.35L337.21-31.35Q350.10-25.78 358.74-19.63L358.74-19.63Q362.70-16.55 362.70-13.33L362.70-13.33Q362.70-7.03 359.18-7.03L359.18-7.03Q356.69-7.03 353.76-10.84L353.76-10.84Q342.92-23.44 331.35-29.59L331.35-29.59Q327.98-31.64 327.98-33.25L327.98-33.25Q327.98-35.01 329.44-37.65L329.44-37.65Q330.76-40.28 334.86-58.89L334.86-58.89Q338.38-76.61 338.38-89.79L338.38-89.79Q338.38-95.95 337.50-98.88L337.50-98.88Q336.62-101.22 336.62-102.39L336.62-102.39Q336.62-104.30 338.38-104.30L338.38-104.30ZM342.77-104.30Q342.77-104.30 342.77-104.30ZM358.74-73.24Q359.62-73.24 362.40-72.22L362.40-72.22Q365.92-70.46 365.92-68.85L365.92-68.85Q365.92-68.41 365.63-67.38L365.63-67.38Q365.33-66.36 365.19-63.72L365.19-63.72Q364.16-55.52 362.40-48.93L362.40-48.93Q360.21-40.43 356.40-36.18L356.40-36.18Q352.59-32.23 349.22-32.23L349.22-32.23Q348.19-32.23 348.19-32.67L348.19-32.67Q348.19-33.40 348.93-33.98L348.93-33.98Q352.15-37.65 354.05-42.63L354.05-42.63Q356.25-47.61 357.28-53.91L357.28-53.91Q358.30-60.06 358.30-66.21L358.30-66.21Q358.30-68.26 357.86-69.58L357.86-69.58Q357.42-71.19 357.42-71.92L357.42-71.92Q357.42-73.24 358.74-73.24L358.74-73.24ZM361.52-73.24Q361.52-73.24 361.52-73.24ZM309.08-52.29L309.08-52.29Q309.96-52.29 312.01-52.00L312.01-52.00Q314.79-51.71 315.53-51.71L315.53-51.71Q317.58-51.71 323.00-52.15L323.00-52.15Q347.17-55.22 356.84-56.98L356.84-56.98Q359.33-57.42 360.35-57.42L360.35-57.42Q363.87-57.42 363.87-55.66L363.87-55.66Q363.87-54.35 359.91-53.47L359.91-53.47Q332.08-46.88 332.08-46.73L332.08-46.73Q326.22-45.26 321.53-43.65L321.53-43.65Q318.75-42.33 317.29-42.33L317.29-42.33Q315.09-42.33 311.28-45.56L311.28-45.56Q307.03-49.51 307.03-50.83L307.03-50.83Q307.03-52.29 309.08-52.29ZM307.03-46.29Q307.03-46.29 307.03-46.29ZM412.94-106.05Q415.28-106.05 418.80-102.98L418.80-102.98Q422.02-100.78 422.02-99.46L422.02-99.46Q422.02-97.12 418.65-95.80L418.65-95.80Q412.35-94.34 397.71-87.30L397.71-87.30Q388.48-83.20 384.38-83.20L384.38-83.20Q381.74-83.20 381.74-84.23L381.74-84.23Q381.74-84.81 384.23-85.84L384.23-85.84Q390.23-88.48 399.17-94.63L399.17-94.63Q406.79-100.05 411.04-105.18L411.04-105.18Q412.50-106.05 412.94-106.05L412.94-106.05ZM309.96-106.05L309.96-106.05ZM415.43-106.05L415.43-106.05ZM378.81-87.89L378.81-87.89Q380.42-87.89 383.64-86.57L383.64-86.57Q386.43-85.55 386.43-84.08L386.43-84.08Q386.43-83.79 385.99-83.35L385.99-83.35Q385.25-82.62 385.25-80.71L385.25-80.71Q385.25-74.71 384.23-69.87L384.23-69.87Q383.35-65.19 381.59-61.38L381.59-61.38Q379.98-57.86 377.64-55.66L377.64-55.66Q375.59-53.91 375-53.91L375-53.91Q374.41-53.91 374.41-54.35L374.41-54.35Q374.41-54.49 374.71-55.08L374.71-55.08Q376.46-58.59 377.49-62.40L377.49-62.40Q378.66-66.50 379.10-71.48L379.10-71.48Q379.54-76.03 379.54-80.71L379.54-80.71Q379.54-83.64 378.52-84.81L378.52-84.81Q377.49-85.69 377.49-86.43L377.49-86.43Q377.49-87.89 378.81-87.89ZM381.45-87.89L381.45-87.89ZM381.45-87.89L381.45-87.89ZM434.47-68.55Q436.38-68.55 441.06-66.36L441.06-66.36Q445.90-64.01 445.90-62.70L445.90-62.70Q445.90-60.64 442.82-60.06L442.82-60.06Q440.92-59.33 435.35-59.33L435.35-59.33Q424.80-59.33 413.09-57.42L413.09-57.42Q396.83-54.49 391.41-52.88L391.41-52.88Q389.65-52.15 388.92-52.15L388.92-52.15Q387.45-52.15 383.50-54.20L383.50-54.20Q380.27-55.81 380.27-56.84L380.27-56.84Q380.27-57.86 383.06-58.15L383.06-58.15Q393.16-59.77 406.49-62.26L406.49-62.26Q425.98-66.50 431.40-67.82L431.40-67.82Q433.89-68.55 434.47-68.55L434.47-68.55ZM380.27-55.08Q380.27-55.08 380.27-55.08ZM406.35-59.77Q407.81-59.77 412.50-58.01L412.50-58.01Q416.89-55.96 416.89-53.47L416.89-53.47Q416.89-53.32 416.02-51.86L416.02-51.86Q414.84-49.07 414.70-45.85L414.70-45.85Q414.70-45.85 414.11-19.78L414.11-19.78Q413.96-12.30 412.06-6.74L412.06-6.74Q410.30 0.59 408.98 0.59L408.98 0.59Q407.37 0.59 406.49-4.69L406.49-4.69Q406.20-8.79 406.20-15.53L406.20-15.53Q406.20-15.53 406.20-45.26L406.20-45.26Q406.20-51.42 405.03-55.37L405.03-55.37Q404.44-57.28 404.44-57.71L404.44-57.71Q404.44-59.47 406.35-59.77L406.35-59.77ZM366.21-53.47L366.21-53.47ZM408.98-59.77Q408.98-59.77 408.98-59.77Z"/>
    </svg>
        