<svg width="252" height="252" version="1.1" xmlns="http://www.w3.org/2000/svg" xmlns:xlink="http://www.w3.org/1999/xlink"><path d="M64.48 3.94Q68.66 3.94 79.00 10.83L79.00 10.83Q84.41 14.03 84.41 18.21L84.41 18.21Q84.41 19.44 81.95 25.59L81.95 25.59Q80.96 29.78 79.00 36.67L79.00 36.67Q68.41 83.18 59.80 110.99L59.80 110.99Q57.59 120.09 57.59 122.31L57.59 122.31Q57.59 124.03 62.51 126.49L62.51 126.49Q84.16 135.84 98.68 146.18L98.68 146.18Q105.33 151.35 105.33 156.76L105.33 156.76Q105.33 167.34 99.42 167.34L99.42 167.34Q95.24 167.34 90.32 160.95L90.32 160.95Q72.11 139.78 52.66 129.45L52.66 129.45Q47.00 126 47.00 123.29L47.00 123.29Q47.00 120.34 49.46 115.91L49.46 115.91Q51.68 111.48 58.57 80.23L58.57 80.23Q64.48 50.45 64.48 28.30L64.48 28.30Q64.48 17.96 63 13.04L63 13.04Q61.52 9.11 61.52 7.14L61.52 7.14Q61.52 3.94 64.48 3.94L64.48 3.94ZM71.86 3.94Q71.86 3.94 71.86 3.94ZM98.68 56.11Q100.16 56.11 104.84 57.83L104.84 57.83Q110.74 60.79 110.74 63.49L110.74 63.49Q110.74 64.23 110.25 65.95L110.25 65.95Q109.76 67.68 109.51 72.11L109.51 72.11Q107.79 85.89 104.84 96.96L104.84 96.96Q101.14 111.23 94.75 118.37L94.75 118.37Q88.35 125.02 82.69 125.02L82.69 125.02Q80.96 125.02 80.96 124.28L80.96 124.28Q80.96 123.05 82.20 122.06L82.20 122.06Q87.61 115.91 90.81 107.54L90.81 107.54Q94.50 99.18 96.22 88.59L96.22 88.59Q97.95 78.26 97.95 67.92L97.95 67.92Q97.95 64.48 97.21 62.26L97.21 62.26Q96.47 59.55 96.47 58.32L96.47 58.32Q96.47 56.11 98.68 56.11L98.68 56.11ZM103.36 56.11Q103.36 56.11 103.36 56.11ZM15.26 91.30L15.26 91.30Q16.73 91.30 20.18 91.79L20.18 91.79Q24.86 92.29 26.09 92.29L26.09 92.29Q29.53 92.29 38.64 91.55L38.64 91.55Q79.24 86.38 95.48 83.43L95.48 83.43Q99.67 82.69 101.39 82.69L101.39 82.69Q107.30 82.69 107.30 85.64L107.30 85.64Q107.30 87.86 100.65 89.33L100.65 89.33Q53.89 100.41 53.89 100.65L53.89 100.65Q44.05 103.11 36.18 105.82L36.18 105.82Q31.50 108.04 29.04 108.04L29.04 108.04Q25.35 108.04 18.95 102.62L18.95 102.62Q11.81 95.98 11.81 93.76L11.81 93.76Q11.81 91.30 15.26 91.30ZM11.81 101.39Q11.81 101.39 11.81 101.39ZM189.74 0.98Q193.68 0.98 199.58 6.15L199.58 6.15Q205.00 9.84 205.00 12.06L205.00 12.06Q205.00 16.00 199.34 18.21L199.34 18.21Q188.75 20.67 164.14 32.48L164.14 32.48Q148.64 39.38 141.75 39.38L141.75 39.38Q137.32 39.38 137.32 37.65L137.32 37.65Q137.32 36.67 141.50 34.95L141.50 34.95Q151.59 30.52 166.61 20.18L166.61 20.18Q179.40 11.07 186.54 2.46L186.54 2.46Q189 0.98 189.74 0.98L189.74 0.98ZM16.73 0.98L16.73 0.98ZM193.92 0.98L193.92 0.98ZM132.40 31.50L132.40 31.50Q135.11 31.50 140.52 33.71L140.52 33.71Q145.20 35.44 145.20 37.90L145.20 37.90Q145.20 38.39 144.46 39.13L144.46 39.13Q143.23 40.36 143.23 43.56L143.23 43.56Q143.23 53.65 141.50 61.77L141.50 61.77Q140.03 69.64 137.07 76.04L137.07 76.04Q134.37 81.95 130.43 85.64L130.43 85.64Q126.98 88.59 126 88.59L126 88.59Q125.02 88.59 125.02 87.86L125.02 87.86Q125.02 87.61 125.51 86.63L125.51 86.63Q128.46 80.72 130.18 74.32L130.18 74.32Q132.15 67.43 132.89 59.06L132.89 59.06Q133.63 51.43 133.63 43.56L133.63 43.56Q133.63 38.64 131.91 36.67L131.91 36.67Q130.18 35.19 130.18 33.96L130.18 33.96Q130.18 31.50 132.40 31.50ZM136.83 31.50L136.83 31.50ZM136.83 31.50L136.83 31.50ZM225.91 63.98Q229.11 63.98 236.99 67.68L236.99 67.68Q245.11 71.61 245.11 73.83L245.11 73.83Q245.11 77.27 239.94 78.26L239.94 78.26Q236.74 79.49 227.39 79.49L227.39 79.49Q209.67 79.49 189.98 82.69L189.98 82.69Q162.67 87.61 153.56 90.32L153.56 90.32Q150.61 91.55 149.38 91.55L149.38 91.55Q146.92 91.55 140.27 88.10L140.27 88.10Q134.86 85.39 134.86 83.67L134.86 83.67Q134.86 81.95 139.54 81.46L139.54 81.46Q156.52 78.75 178.91 74.57L178.91 74.57Q211.64 67.43 220.75 65.21L220.75 65.21Q224.93 63.98 225.91 63.98L225.91 63.98ZM134.86 86.63Q134.86 86.63 134.86 86.63ZM178.66 78.75Q181.13 78.75 189 81.70L189 81.70Q196.38 85.15 196.38 89.33L196.38 89.33Q196.38 89.58 194.91 92.04L194.91 92.04Q192.94 96.71 192.69 102.13L192.69 102.13Q192.69 102.13 191.71 145.93L191.71 145.93Q191.46 158.48 188.26 167.84L188.26 167.84Q185.31 180.14 183.09 180.14L183.09 180.14Q180.39 180.14 178.91 171.28L178.91 171.28Q178.42 164.39 178.42 153.07L178.42 153.07Q178.42 153.07 178.42 103.11L178.42 103.11Q178.42 92.78 176.45 86.13L176.45 86.13Q175.46 82.93 175.46 82.20L175.46 82.20Q175.46 79.24 178.66 78.75L178.66 78.75ZM111.23 89.33L111.23 89.33ZM183.09 78.75Q183.09 78.75 183.09 78.75Z" stroke="#000" fill="black" /></svg>