<svg width="252" height="252" version="1.1" xmlns="http://www.w3.org/2000/svg" xmlns:xlink="http://www.w3.org/1999/xlink"><path d="M45.28 41.34Q48.23 41.34 51.68 42.57L51.68 42.57Q60.05 45.04 64.23 47.99L64.23 47.99Q67.92 51.43 67.92 57.34L67.92 57.34Q67.92 66.94 60.05 66.94L60.05 66.94Q58.08 66.94 55.86 64.48L55.86 64.48Q51.68 60.05 44.05 45.77L44.05 45.77Q43.07 44.30 43.07 43.56L43.07 43.56Q43.56 41.34 45.28 41.34L45.28 41.34ZM21.66 90.56Q24.61 90.56 28.05 91.79L28.05 91.79Q36.42 94.25 40.61 97.21L40.61 97.21Q44.30 100.65 44.30 106.56L44.30 106.56Q44.30 116.16 36.42 116.16L36.42 116.16Q34.45 116.16 32.24 113.70L32.24 113.70Q28.05 109.27 20.43 94.99L20.43 94.99Q19.44 93.52 19.44 92.78L19.44 92.78Q19.93 90.56 21.66 90.56L21.66 90.56ZM69.40 120.09L69.40 120.09Q70.88 120.09 70.88 122.31L70.88 122.31Q70.88 126 67.92 135.11L67.92 135.11Q62.51 152.58 53.65 175.71L53.65 175.71Q50.70 184.32 47.25 197.37L47.25 197.37Q45.04 206.72 41.84 206.72L41.84 206.72Q38.64 206.72 34.70 198.35L34.70 198.35Q29.53 185.06 29.53 181.13L29.53 181.13Q29.53 177.43 33.22 174.73L33.22 174.73Q40.36 169.56 45.77 160.70L45.77 160.70Q53.89 149.38 66.69 122.06L66.69 122.06Q68.17 120.09 69.40 120.09ZM29.53 196.88Q29.53 196.88 29.53 196.88ZM96.47 66.94L96.47 66.94Q98.44 66.94 100.65 72.11L100.65 72.11Q102.13 76.78 102.13 80.47L102.13 80.47Q102.13 84.16 99.42 90.56L99.42 90.56Q96.47 97.21 94.01 99.91L94.01 99.91Q92.04 101.39 90.56 101.39L90.56 101.39Q88.35 101.39 86.13 98.68L86.13 98.68Q84.90 96.47 84.90 93.52L84.90 93.52Q84.90 90.81 86.13 89.09L86.13 89.09Q89.58 84.16 94.75 69.15L94.75 69.15Q95.24 66.94 96.47 66.94ZM159.71 63Q161.93 63 171.28 67.68L171.28 67.68Q180.63 73.09 180.63 76.04L180.63 76.04Q180.63 77.27 178.17 78.01L178.17 78.01Q173.99 78.75 171.77 79.73L171.77 79.73Q167.59 80.72 154.55 85.64L154.55 85.64Q153.32 85.64 153.32 84.66L153.32 84.66Q156.52 80.72 158.48 75.80L158.48 75.80Q158.48 73.83 156.02 73.58L156.02 73.58Q154.05 73.58 144.21 75.30L144.21 75.30Q127.97 77.77 110.25 81.70L110.25 81.70Q105.57 82.93 104.34 82.93L104.34 82.93Q101.88 82.93 98.93 81.46L98.93 81.46Q95.48 79.24 95.48 77.27L95.48 77.27Q95.48 76.29 100.16 75.55L100.16 75.55Q123.79 72.11 147.41 66.20L147.41 66.20Q158.48 63 159.71 63L159.71 63ZM95.48 80.72L95.48 80.72ZM136.09 17.72Q139.04 17.72 145.69 21.41L145.69 21.41Q152.33 25.35 152.33 28.05L152.33 28.05Q152.33 29.29 150.86 31.75L150.86 31.75Q149.38 35.44 147.66 43.07L147.66 43.07Q142.98 65.71 137.57 80.72L137.57 80.72Q130.92 97.45 118.13 111.73L118.13 111.73Q105.82 125.02 90.81 129.45L90.81 129.45Q85.39 131.41 82.69 131.91L82.69 131.91Q80.72 131.91 80.72 130.92L80.72 130.92Q80.72 129.69 84.16 127.97L84.16 127.97Q101.64 115.66 108.28 108.04L108.28 108.04Q115.42 100.16 122.06 86.87L122.06 86.87Q126.98 76.78 130.92 61.03L130.92 61.03Q133.88 48.73 134.37 36.18L134.37 36.18Q134.37 29.53 132.89 24.61L132.89 24.61Q131.91 21.90 131.91 20.92L131.91 20.92Q133.14 17.72 136.09 17.72L136.09 17.72ZM139.78 17.72Q139.78 17.72 139.78 17.72ZM147.41 112.22Q152.09 112.22 157.99 115.66L157.99 115.66Q163.16 118.62 163.16 122.06L163.16 122.06Q162.91 122.55 161.68 124.77L161.68 124.77Q160.21 126.74 158.24 133.63L158.24 133.63Q156.76 140.52 156.76 147.66L156.76 147.66Q156.76 153.07 163.41 155.04L163.41 155.04Q169.80 157.01 184.32 157.01L184.32 157.01Q199.83 157.01 205.98 153.56L205.98 153.56Q214.10 150.86 216.81 130.92L216.81 130.92Q216.81 128.95 217.55 128.95L217.55 128.95Q219.02 128.95 220.01 132.15L220.01 132.15Q222.96 142.00 226.65 147.90L226.65 147.90Q229.36 151.10 229.36 152.82L229.36 152.82Q229.36 157.99 220.01 163.41L220.01 163.41Q207.70 170.30 186.29 170.30L186.29 170.30Q166.11 170.30 157.25 165.13L157.25 165.13Q146.92 159.47 146.92 147.16L146.92 147.16Q146.92 142.49 147.16 135.84L147.16 135.84Q147.41 132.40 147.41 129.45L147.41 129.45Q147.41 123.54 145.93 119.60L145.93 119.60Q144.21 116.40 144.21 114.93L144.21 114.93Q144.21 112.22 147.41 112.22L147.41 112.22ZM151.59 149.63L151.59 149.63ZM229.36 170.30L229.36 170.30ZM151.59 112.22L151.59 112.22Z" stroke="#000" fill="black" /></svg>