<svg width="252" height="252" version="1.1" xmlns="http://www.w3.org/2000/svg" xmlns:xlink="http://www.w3.org/1999/xlink"><path d="M83.43 14.77Q88.59 14.77 95.98 17.72L95.98 17.72Q99.42 19.69 99.42 21.90L99.42 21.90Q99.42 28.30 99.67 31.25L99.67 31.25Q101.39 55.62 101.39 57.59L101.39 57.59Q100.41 63.74 97.45 63.98L97.45 63.98Q93.76 63.74 91.55 54.63L91.55 54.63Q84.66 28.79 81.70 23.87L81.70 23.87Q79.49 19.93 79.49 18.46L79.49 18.46Q79.49 14.77 83.43 14.77L83.43 14.77ZM88.59 14.77Q88.59 14.77 88.59 14.77ZM50.70 46.02L50.70 46.02Q52.17 46.02 55.62 46.51L55.62 46.51Q60.29 47.00 61.52 47.00L61.52 47.00Q64.97 47.00 74.07 46.27L74.07 46.27Q114.68 41.10 130.92 38.14L130.92 38.14Q135.11 37.41 136.83 37.41L136.83 37.41Q142.73 37.41 142.73 40.36L142.73 40.36Q142.73 42.57 136.09 44.05L136.09 44.05Q89.33 55.13 89.33 55.37L89.33 55.37Q79.49 57.83 71.61 60.54L71.61 60.54Q66.94 62.75 64.48 62.75L64.48 62.75Q60.79 62.75 54.39 57.34L54.39 57.34Q47.25 50.70 47.25 48.48L47.25 48.48Q47.25 46.02 50.70 46.02ZM47.25 56.11Q47.25 56.11 47.25 56.11ZM170.05 3.94Q172.76 3.94 177.19 6.64L177.19 6.64Q182.11 9.84 182.11 12.30L182.11 12.30Q182.11 12.80 180.63 14.27L180.63 14.27Q178.91 16.98 177.43 19.69L177.43 19.69Q172.51 27.07 169.31 29.53L169.31 29.53Q167.10 31.50 166.36 31.50L166.36 31.50Q165.13 31.25 165.13 30.27L165.13 30.27Q166.61 23.13 167.34 18.21L167.34 18.21Q167.84 14.27 167.84 12.06L167.84 12.06Q167.84 10.58 167.10 7.14L167.10 7.14Q167.59 3.94 170.05 3.94L170.05 3.94ZM175.22 3.94Q175.22 3.94 175.22 3.94ZM223.95 20.67Q227.14 20.67 235.02 24.36L235.02 24.36Q243.14 28.30 243.14 30.52L243.14 30.52Q243.14 33.96 237.97 34.95L237.97 34.95Q234.77 36.18 225.42 36.18L225.42 36.18Q207.70 36.18 188.02 39.38L188.02 39.38Q160.70 44.30 151.59 47.00L151.59 47.00Q148.64 48.23 147.41 48.23L147.41 48.23Q144.95 48.23 138.30 44.79L138.30 44.79Q132.89 42.08 132.89 40.36L132.89 40.36Q132.89 38.64 137.57 38.14L137.57 38.14Q154.55 35.44 176.94 31.25L176.94 31.25Q209.67 24.12 218.78 21.90L218.78 21.90Q222.96 20.67 223.95 20.67L223.95 20.67ZM132.89 43.31Q132.89 43.31 132.89 43.31ZM87.36 91.55Q92.53 91.55 97.95 93.76L97.95 93.76Q102.62 95.98 102.62 99.18L102.62 99.18Q102.62 99.67 101.64 101.88L101.64 101.88Q100.41 105.08 100.41 111.73L100.41 111.73Q99.67 144.95 96.71 158.73L96.71 158.73Q93.76 171.04 88.35 179.65L88.35 179.65Q83.92 187.28 76.29 192.20L76.29 192.20Q69.15 196.88 63.98 196.88L63.98 196.88Q62.02 196.88 62.02 195.89L62.02 195.89Q71.37 188.02 76.54 180.39L76.54 180.39Q82.69 172.76 86.13 155.53L86.13 155.53Q88.35 141.75 88.35 118.37L88.35 118.37Q88.35 102.87 85.15 97.45L85.15 97.45Q83.67 95.48 83.67 94.01L83.67 94.01Q83.67 91.55 87.36 91.55L87.36 91.55ZM92.53 91.55L92.53 91.55ZM92.53 91.55Q92.53 91.55 92.53 91.55ZM149.13 81.95Q152.09 81.95 157.99 86.38L157.99 86.38Q164.39 91.55 164.39 93.76L164.39 93.76Q164.39 94.50 161.68 96.47L161.68 96.47Q156.76 100.41 153.81 109.76L153.81 109.76Q150.12 121.32 150.12 127.97L150.12 127.97Q150.12 138.06 157.50 141.26L157.50 141.26Q164.39 144.46 182.60 144.46L182.60 144.46Q199.34 144.46 205.98 140.77L205.98 140.77Q214.10 136.09 219.52 112.71L219.52 112.71Q219.76 110.25 220.50 110.25L220.50 110.25Q221.73 110.25 221.98 113.45L221.98 113.45Q225.18 133.63 227.88 137.32L227.88 137.32Q230.34 140.77 230.34 142.73L230.34 142.73Q230.34 148.15 220.50 153.32L220.50 153.32Q208.20 159.47 185.31 159.47L185.31 159.47Q162.67 159.47 150.86 153.07L150.86 153.07Q138.30 146.67 138.30 127.97L138.30 127.97Q138.30 119.11 141.26 105.08L141.26 105.08Q142.00 102.13 142.00 100.65L142.00 100.65Q142.00 98.19 139.54 98.19L139.54 98.19Q137.57 98.19 133.14 98.93L133.14 98.93Q105.08 104.59 98.68 104.59L98.68 104.59Q94.99 104.59 92.04 103.11L92.04 103.11Q89.58 101.88 89.58 100.16L89.58 100.16Q89.58 99.18 93.52 98.44L93.52 98.44Q104.59 96.96 117.14 93.52L117.14 93.52Q130.43 89.58 142.49 84.41L142.49 84.41Q148.39 81.95 149.13 81.95L149.13 81.95ZM-1.97 81.95L-1.97 81.95ZM143.72 127.97L143.72 127.97ZM230.34 159.47L230.34 159.47ZM89.58 102.38L89.58 102.38ZM100.41 133.88Q101.39 133.88 103.85 134.61L103.85 134.61Q108.77 136.83 113.45 139.78L113.45 139.78Q119.60 144.21 121.57 147.90L121.57 147.90Q123.05 151.10 123.05 155.04L123.05 155.04Q123.05 157.99 121.57 161.68L121.57 161.68Q119.85 164.39 117.14 164.39L117.14 164.39Q116.40 164.39 114.93 162.67L114.93 162.67Q112.46 160.21 108.77 152.33L108.77 152.33Q103.85 142.49 101.39 139.04L101.39 139.04Q99.42 136.58 99.42 135.35L99.42 135.35Q99.42 133.88 100.41 133.88L100.41 133.88Z" stroke="#000" fill="black" /></svg>